<svg xmlns="http://www.w3.org/2000/svg" viewBox="0 0 512 512">
  <defs>
    <linearGradient id="bg" x1="0" y1="0" x2="0.4" y2="1">
      <stop offset="0" stop-color="#2fb56d"/>
      <stop offset="1" stop-color="#0e6e3d"/>
    </linearGradient>
  </defs>
  <rect width="512" height="512" rx="120" fill="url(#bg)"/>
  <path d="M150 138c15-15 40-15 55 0l38 38c15 15 15 40 0 55l-11 11c-7 7-8 18-3 27 19 32 46 59 78 78 9 5 20 4 27-3l11-11c15-15 40-15 55 0l38 38c15 15 15 40 0 55l-20 20c-17 17-42 24-65 17-129-40-231-142-271-271-7-23 0-48 17-65z" fill="#fff"/>
  <path d="M356 118c-9-19-38-19-38 6 0 22 24 34 38 49 14-15 38-27 38-49 0-25-29-25-38-6z" fill="#fff"/>
</svg>
